<svg width="166" height="40" viewBox="0 0 166 40" fill="none" xmlns="http://www.w3.org/2000/svg">
<g clip-path="url(#clip0_2_655)">
<path d="M47.3519 10.4201C46.4321 10.4319 45.5131 10.3577 44.6055 10.1982V13.4035C45.513 13.2438 46.4321 13.1695 47.3519 13.1814H51.5255V27.6563C51.5367 28.6343 51.4668 29.6115 51.3166 30.5765H54.7578C54.6075 29.6115 54.5376 28.6343 54.5489 27.6563V13.1815H58.7222C59.6422 13.1696 60.5614 13.2439 61.4691 13.4036V10.1982C60.5613 10.3577 59.6422 10.4319 58.7222 10.4201H47.3519Z" fill="#06262D"/>
<path d="M91.4406 27.8154V23.4693H95.646C96.5662 23.4574 97.4855 23.5317 98.3933 23.6913V20.4859C97.4854 20.6453 96.5661 20.7195 95.646 20.7076H91.4406V16.8822H99.0205C99.9406 16.8705 100.86 16.9448 101.768 17.1043V13.8989C100.86 14.0585 99.9407 14.1329 99.0205 14.1212H88.2083C88.3586 15.086 88.4286 16.063 88.4175 17.0409V27.6569C88.4286 28.6349 88.3586 29.612 88.2083 30.5768H99.2767C100.196 30.5648 101.115 30.6391 102.022 30.7989V27.5937C101.115 27.7532 100.196 27.8274 99.2767 27.8154H91.4406Z" fill="#06262D"/>
<path d="M82.327 14.1211H78.8858C79.0361 15.086 79.106 16.063 79.0947 17.041V20.64H68.7044V17.0408C68.6932 16.063 68.7629 15.086 68.9127 14.1211H65.4718C65.6221 15.086 65.692 16.063 65.6807 17.041V27.6569C65.692 28.6348 65.6221 29.6119 65.4718 30.5768H68.9127C68.7629 29.6119 68.6932 28.6348 68.7044 27.6569V23.4916H79.0948V27.6569C79.1061 28.6348 79.0362 29.6119 78.8859 30.5768H82.327C82.1768 29.6119 82.107 28.6348 82.1183 27.6569V17.0408C82.107 16.063 82.1769 15.0859 82.327 14.1211Z" fill="#06262D"/>
<path d="M132.093 27.8154V23.4693H136.3C137.219 23.4574 138.138 23.5317 139.045 23.6913V20.4859C138.138 20.6453 137.219 20.7195 136.3 20.7076H132.093V16.8822H139.674C140.594 16.8704 141.512 16.9447 142.42 17.1043V13.8989C141.512 14.0586 140.594 14.133 139.674 14.1212H128.861C129.011 15.086 129.081 16.063 129.069 17.0409V27.6569C129.081 28.6348 129.011 29.6119 128.861 30.5768H139.929C140.849 30.5649 141.768 30.6392 142.676 30.7989V27.5937C141.768 27.7531 140.849 27.8273 139.929 27.8154H132.093Z" fill="#06262D"/>
<path d="M165.013 14.1206H161.028L161.021 14.1152H160.792C160.351 14.9135 159.848 15.6712 159.289 16.3806L159.312 16.3599L155.685 21.0923L152.057 16.3807C151.499 15.6731 150.998 14.9172 150.558 14.1206H146.344C147.034 14.768 147.669 15.4788 148.241 16.245L154.172 23.9899V27.6566C154.184 28.6346 154.114 29.6118 153.964 30.5768H157.404C157.255 29.6117 157.185 28.6346 157.196 27.6566V23.9899L163.124 16.2501C163.696 15.484 164.331 14.7732 165.02 14.126L165.014 14.1206H165.013Z" fill="#06262D"/>
<path d="M123.514 28.5167L116.253 19.5935L124.631 10.4206H120.59C120.126 11.145 119.605 11.8257 119.031 12.455L111.374 20.838V12.6794C111.357 11.9202 111.427 11.1617 111.583 10.4204H108.141C108.296 11.1617 108.366 11.9202 108.349 12.6794V27.6567C108.361 28.6347 108.291 29.6119 108.141 30.5768H111.583C111.432 29.6119 111.363 28.6347 111.374 27.6567V24.9341L114.322 21.7063L119.765 28.3932C120.332 29.0745 120.845 29.8049 121.297 30.5768H125.468C124.761 29.9526 124.107 29.2632 123.514 28.5167Z" fill="#06262D"/>
<path d="M36.2203 19.9951C36.2196 15.7264 34.8841 11.5789 32.4238 8.20527C29.9636 4.83159 26.5182 2.42307 22.6297 1.35856L22.6709 1.36569C20.4514 0.800453 19.4473 0.495117 19.4473 0.495117L19.4458 3.63023C23.3006 3.98198 26.8909 5.85841 29.507 8.88857C32.1232 11.9187 33.5747 15.8821 33.5747 19.9951C33.5747 24.1081 32.1232 28.0715 29.507 31.1016C26.8909 34.1318 23.3006 36.0082 19.4458 36.36L19.4463 39.4951C19.4463 39.4951 20.4503 39.1898 22.6696 38.6245L22.6325 38.6311C26.5204 37.566 29.965 35.1573 32.4247 31.7838C34.8843 28.4103 36.2195 24.2634 36.2203 19.9951Z" fill="#06262D"/>
<path d="M0.0200195 19.9951C0.0207152 15.7264 1.35621 11.579 3.81643 8.20528C6.27665 4.8316 9.72201 2.42308 13.6106 1.35856L13.5694 1.36569C15.7888 0.800453 16.793 0.495117 16.793 0.495117L16.7944 3.63023C12.9396 3.98198 9.34933 5.85841 6.7332 8.88857C4.11706 11.9187 2.66552 15.8821 2.66552 19.9951C2.66552 24.1081 4.11706 28.0715 6.7332 31.1016C9.34933 34.1318 12.9396 36.0082 16.7944 36.36L16.7939 39.4952C16.7939 39.4952 15.79 39.1899 13.5707 38.6246L13.6078 38.6312C9.71986 37.5661 6.27524 35.1574 3.81558 31.7838C1.35591 28.4103 0.0207419 24.2634 0.0200195 19.9951Z" fill="#06262D"/>
<path d="M24.5995 29.7485C24.2451 28.7967 23.9706 27.8135 23.7792 26.8104L22.2426 19.2424C23.145 18.3622 23.7764 17.213 24.0544 15.945C24.3323 14.6771 24.2437 13.3495 23.8003 12.1359C23.3568 10.9224 22.5791 9.87938 21.5688 9.14344C20.5586 8.40751 19.363 8.01289 18.1383 8.01124C16.9137 8.00958 15.7171 8.40096 14.7051 9.13416C13.6931 9.86736 12.9129 10.9082 12.4665 12.1206C12.0201 13.3329 11.9284 14.6603 12.2033 15.929C12.4782 17.1977 13.1069 18.3486 14.0072 19.2312L12.4685 26.81C12.277 27.8133 12.0023 28.7966 11.6479 29.7485L11.3497 30.5772H24.8979L24.5995 29.7485ZM14.3294 28.1259C14.6943 27.1449 14.9773 26.1316 15.175 25.0979L16.587 18.1437C15.7992 17.7695 15.1561 17.1192 14.7651 16.3015C14.3742 15.4838 14.259 14.5483 14.439 13.6512C14.6189 12.7541 15.083 11.9498 15.7538 11.3728C16.4245 10.7957 17.2612 10.4809 18.124 10.4809C18.9868 10.4809 19.8235 10.7957 20.4942 11.3728C21.1649 11.9498 21.6291 12.7541 21.809 13.6512C21.9889 14.5483 21.8738 15.4838 21.4829 16.3015C21.0919 17.1192 20.4488 17.7695 19.661 18.1437L21.0728 25.0979C21.2705 26.1316 21.5535 27.1449 21.9184 28.1259H14.3294Z" fill="#D0B787"/>
</g>
<defs>
<clipPath id="clip0_2_655">
<rect width="165" height="39" fill="white" transform="translate(0.0200195 0.495117)"/>
</clipPath>
</defs>
</svg>
